<?xml version="1.0" encoding="UTF-8" standalone="no"?>
<svg width="124px" height="134px" viewBox="0 0 124 134" version="1.1" xmlns="http://www.w3.org/2000/svg" xmlns:xlink="http://www.w3.org/1999/xlink">
    <!-- Generator: Sketch 43.2 (39069) - http://www.bohemiancoding.com/sketch -->
    <title>Page 1</title>
    <desc>Created with Sketch.</desc>
    <defs></defs>
    <g id="Page-1" stroke="none" stroke-width="1" fill="none" fill-rule="evenodd">
        <g fill="#3087B6">
            <path d="M115.565304,10.1350281 L73.809113,10.1350281 C72.8570087,4.39347791 67.8501043,0 61.8323304,0 C55.8145565,0 50.8076522,4.39347791 49.8555478,10.1350281 L8.09881739,10.1350281 C3.6332,10.1350281 0,13.7616386 0,18.2191566 L0,125.490731 C0,129.948249 3.6332,133.574859 8.09881739,133.574859 L115.565304,133.574859 C120.031461,133.574859 123.664661,129.948249 123.664661,125.490731 L123.664661,18.2191566 C123.664661,13.7616386 120.031461,10.1350281 115.565304,10.1350281 L115.565304,10.1350281 Z M34.5162087,39.9363052 L89.147913,39.9363052 C93.6140696,39.9363052 97.2472696,36.3096948 97.2472696,31.8521767 L97.2472696,24.5090843 L105.934278,24.5090843 L105.934278,118.841855 L17.7293043,118.841855 L17.7293043,24.5090843 L26.4173913,24.5090843 L26.4173913,31.8521767 C26.4173913,36.3096948 30.0505913,39.9363052 34.5162087,39.9363052 L34.5162087,39.9363052 Z M93.9882261,31.8521767 C93.9882261,34.5165703 91.8171478,36.6837108 89.147913,36.6837108 L34.5162087,36.6837108 C31.847513,36.6837108 29.6758957,34.5165703 29.6758957,31.8521767 L29.6758957,13.3876225 L49.756887,13.3876225 C50.3936,19.4768193 55.5660174,24.240008 61.8323304,24.240008 C68.0986435,24.240008 73.2710609,19.4768193 73.9077739,13.3876225 L93.9882261,13.3876225 L93.9882261,31.8521767 Z M61.8323304,3.25205622 C66.7303304,3.25205622 70.7155826,7.23061847 70.7155826,12.1197349 C70.7155826,17.0093896 66.7303304,20.9879518 61.8323304,20.9879518 C56.9337913,20.9879518 52.9485391,17.0093896 52.9485391,12.1197349 C52.9485391,7.23061847 56.9337913,3.25205622 61.8323304,3.25205622 L61.8323304,3.25205622 Z M120.405617,125.490731 C120.405617,128.154586 118.234539,130.322265 115.565304,130.322265 L8.09881739,130.322265 C5.43012174,130.322265 3.25850435,128.154586 3.25850435,125.490731 L3.25850435,18.2191566 C3.25850435,15.5547631 5.43012174,13.3876225 8.09881739,13.3876225 L26.4173913,13.3876225 L26.4173913,21.2570281 L14.4708,21.2570281 L14.4708,122.09445 L109.193322,122.09445 L109.193322,21.2570281 L97.2472696,21.2570281 L97.2472696,13.3876225 L115.565304,13.3876225 C118.234539,13.3876225 120.405617,15.5547631 120.405617,18.2191566 L120.405617,125.490731 Z" id="Fill-1"></path>
            <path d="M27.687313,103.259378 L95.9773478,103.259378 C96.8771565,103.259378 97.6066,102.530719 97.6066,101.63308 C97.6066,100.734904 96.8771565,100.006245 95.9773478,100.006245 L27.687313,100.006245 C26.7875043,100.006245 26.0580609,100.734904 26.0580609,101.63308 C26.0580609,102.530719 26.7875043,103.259378 27.687313,103.259378" id="Fill-3"></path>
            <path d="M33.0786174,88.1911044 L90.5860435,88.1911044 C91.4858522,88.1911044 92.2152957,87.4624458 92.2152957,86.5648072 C92.2152957,85.6666305 91.4858522,84.9379719 90.5860435,84.9379719 L33.0786174,84.9379719 C32.1788087,84.9379719 31.4493652,85.6666305 31.4493652,86.5648072 C31.4493652,87.4624458 32.1788087,88.1911044 33.0786174,88.1911044" id="Fill-5"></path>
            <polygon id="Fill-7" points="57.3276261 80.0053189 63.7971913 80.0053189 63.7971913 66.9997847 76.8263565 66.9997847 76.8263565 60.5419534 63.7971913 60.5419534 63.7971913 47.5369574 57.3276261 47.5369574 57.3276261 60.5419534 44.2984609 60.5419534 44.2984609 66.9997847 57.3276261 66.9997847"></polygon>
        </g>
    </g>
</svg>