<?xml version="1.0" encoding="UTF-8" standalone="no"?>
<svg width="125px" height="134px" viewBox="0 0 125 134" version="1.1" xmlns="http://www.w3.org/2000/svg" xmlns:xlink="http://www.w3.org/1999/xlink">
    <!-- Generator: Sketch 43.2 (39069) - http://www.bohemiancoding.com/sketch -->
    <title>Page 1</title>
    <desc>Created with Sketch.</desc>
    <defs>
        <polygon id="path-1" points="0 133.457327 0 0.19405587 124.523759 0.19405587 124.523759 133.457327 6.10722766e-15 133.457327"></polygon>
    </defs>
    <g id="Page-1" stroke="none" stroke-width="1" fill="none" fill-rule="evenodd">
        <g>
            <g id="Group-3" transform="translate(0.000000, 0.348834)">
                <mask id="mask-2" fill="white">
                    <use xlink:href="#path-1"></use>
                </mask>
                <g id="Clip-2"></g>
                <path d="M120.32256,129.418339 C119.88801,129.85289 119.557079,129.941862 119.193597,129.941862 L5.33048745,129.941862 C4.96700567,129.941862 4.63553198,129.85289 4.20152389,129.418339 C3.74635789,128.963173 3.51524858,128.310534 3.51524858,127.477781 L3.51524858,6.17360243 C3.51524858,5.34084939 3.74635789,4.68766721 4.20152389,4.23250121 C4.63553198,3.79795061 4.96700567,3.70897895 5.33048745,3.70897895 L119.193597,3.70897895 C119.557079,3.70897895 119.88801,3.79795061 120.32256,4.23250121 C120.777726,4.68766721 121.008293,5.34084939 121.008293,6.17360243 L121.008293,128.155918 C120.913896,128.672388 120.645896,129.095003 120.32256,129.418339 M123.062779,2.06788583 C122.171435,0.881416194 120.735411,0.19405587 119.193597,0.19405587 L5.33048745,0.19405587 C3.66118381,0.19405587 2.23709474,1.16189393 1.46076275,2.06788583 C0.528730364,3.31294656 -0.000217004049,4.7836915 -0.000217004049,6.17360243 L-0.000217004049,127.477781 C-0.000217004049,129.003319 0.532527935,130.500104 1.46076275,131.582955 C2.35210688,132.769967 3.78867368,133.457327 5.33048745,133.457327 L119.193597,133.457327 C120.862358,133.457327 122.286447,132.488947 123.062779,131.582955 C123.844536,130.538623 124.383249,129.331538 124.523759,128.150493 L124.523759,6.17360243 C124.523759,4.64697895 123.991556,3.15073603 123.062779,2.06788583" id="Fill-1" fill="#3087B6" mask="url(#mask-2)"></path>
            </g>
            <path d="M23.7761571,54.2091304 C24.7667806,54.2091304 25.6695174,53.3063935 25.6695174,52.31577 L25.6695174,49.2657781 L26.0655498,49.1545636 C27.8764486,48.6478591 29.343396,47.6149198 30.3074364,46.1691304 C31.1591773,45.0314866 31.677817,43.5384988 31.677817,42.2478672 L31.677817,41.7606931 C31.677817,40.8384259 31.4450802,39.9617296 30.9231854,38.9179401 C30.3079789,37.6875271 29.3016227,36.5840615 27.8455255,35.5446121 C26.7800356,34.7693652 25.5800032,34.1650089 24.5210235,33.6317215 C23.8412583,33.2893976 23.1994688,32.9660615 22.6770316,32.640013 C22.3699709,32.4121587 22.1030559,32.241268 21.8448211,32.0758024 C21.4883919,31.8474057 21.1807887,31.6504745 20.956732,31.4264178 C20.5563595,31.0265879 20.3404405,30.6018024 20.3138575,30.1629117 C20.1483919,29.6339644 20.1483919,29.2618024 20.1483919,28.9319563 C20.1483919,27.658685 20.5162138,26.9073085 21.0690316,26.1705798 L21.119485,26.1125312 C21.6967158,25.5347579 22.5940275,25.165851 23.8618737,24.9846526 L23.9383676,24.9792275 C24.4184891,24.9792275 24.7656955,25.1040049 25.1335174,25.2358348 C25.2208615,25.2667579 25.3114607,25.2993085 25.4091126,25.3318591 L25.5387725,25.3953328 C26.1588615,25.808183 26.8586996,26.7331628 27.2031935,27.5941263 C27.5460599,28.4518348 27.7288858,29.4880291 27.7288858,29.9063045 C27.7294283,30.9392437 28.6354202,31.760604 29.7247806,31.6407093 L29.7844567,31.6374543 C31.033315,31.6374543 31.8400275,30.8301992 31.8400275,29.5813409 C31.8400275,28.8424421 31.6892097,28.0905231 31.3919142,27.3472842 C30.8884648,26.0061992 30.2683757,24.4860858 29.213736,23.2811709 C28.6169749,22.6860372 28.0299789,22.0990413 27.177153,21.8142235 L27.1066267,21.7849279 C26.8039061,21.6335676 26.47623,21.5142154 26.0747725,21.4100534 L25.6695174,21.3037215 L25.6695174,18.8640534 C25.6695174,17.8728874 24.7667806,16.9706931 23.7761571,16.9706931 C22.7855336,16.9706931 21.8827968,17.8728874 21.8827968,18.8640534 L21.8827968,21.4865474 L21.5133474,21.6107822 C20.3713636,21.9943368 19.4105781,22.6127984 18.6581166,23.4488065 C17.2947887,24.8132194 16.5238818,26.8042316 16.5238818,28.9319563 C16.5238818,29.5536729 16.5238818,30.3267498 16.6703595,30.9115757 C16.8341976,31.8837538 17.315404,32.7837781 17.7146915,33.3154381 C18.5035012,34.3673652 19.5315579,35.0878186 20.5259789,35.7844016 L20.9778899,36.1028551 C21.4986996,36.3860453 22.0330721,36.6556729 22.5565943,36.9198753 C23.8483109,37.5719725 25.0689587,38.1871789 25.9152745,38.9130575 L26.0644648,39.022102 C26.6590559,39.4653328 27.1342947,39.8185069 27.3496713,40.3783773 C27.7093555,40.9268551 27.8910964,41.353268 27.8910964,42.0851142 L27.8910964,42.2478672 C27.8910964,42.7008632 27.8498656,43.1169684 27.3268858,43.9882397 C26.6015498,45.0770575 25.219234,45.7134219 23.6139466,45.7134219 C22.4388696,45.7134219 21.3522219,45.3005717 20.6323109,44.5801182 C20.0062543,43.9540615 19.1740437,42.8630737 19.1740437,40.6235919 C19.1745862,39.5911951 18.2685943,38.7730899 17.178149,38.8897296 L17.1184729,38.8929846 C16.6285862,38.8929846 16.1566024,39.1072761 15.8224162,39.4805231 C15.4811773,39.8613652 15.3254769,40.3615595 15.384068,40.8888794 C15.5397684,43.6806364 16.4636632,45.8506769 18.1329668,47.3675352 C19.0178008,48.2518267 20.1673798,48.8881911 21.4764567,49.2267174 L21.8827968,49.3319644 L21.8827968,52.31577 C21.8827968,53.3063935 22.7855336,54.2091304 23.7761571,54.2091304" id="Fill-4" fill="#3087B6"></path>
            <path d="M105.2353,47.6619012 L50.4075992,47.6619012 C49.4169757,47.6619012 48.5147814,48.5646381 48.5147814,49.5552615 C48.5147814,50.4731887 49.1782713,51.4486219 50.4075992,51.4486219 L105.2353,51.4486219 C106.226466,51.4486219 107.12866,50.545885 107.12866,49.5552615 C107.12866,48.5646381 106.226466,47.6619012 105.2353,47.6619012" id="Fill-6" fill="#3087B6"></path>
            <path d="M106.209865,79.0027109 L16.3061725,79.0027109 C15.315549,79.0027109 14.4128121,79.9054478 14.4128121,80.8960713 C14.4128121,81.8139984 15.0768445,82.7894316 16.3061725,82.7894316 L106.209865,82.7894316 C107.200488,82.7894316 108.103225,81.8866947 108.103225,80.8960713 C108.103225,79.9054478 107.200488,79.0027109 106.209865,79.0027109" id="Fill-8" fill="#3087B6"></path>
            <path d="M106.209865,94.5922275 L16.3061725,94.5922275 C15.315549,94.5922275 14.4128121,95.4949644 14.4128121,96.4855879 C14.4128121,97.6530696 15.1386907,98.3784057 16.3061725,98.3784057 L106.209865,98.3784057 C107.200488,98.3784057 108.103225,97.4762113 108.103225,96.4855879 C108.103225,95.4949644 107.200488,94.5922275 106.209865,94.5922275" id="Fill-10" fill="#3087B6"></path>
            <path d="M106.209865,63.2511466 L16.3061725,63.2511466 C15.315549,63.2511466 14.4128121,64.1538834 14.4128121,65.1445069 C14.4128121,66.3125312 15.1386907,67.0378672 16.3061725,67.0378672 L106.209865,67.0378672 C107.200488,67.0378672 108.103225,66.1351304 108.103225,65.1445069 C108.103225,64.1538834 107.200488,63.2511466 106.209865,63.2511466" id="Fill-12" fill="#3087B6"></path>
            <path d="M106.209865,110.343846 L16.3061725,110.343846 C15.315549,110.343846 14.4128121,111.246583 14.4128121,112.237206 C14.4128121,113.155134 15.0768445,114.130024 16.3061725,114.130024 L106.209865,114.130024 C107.200488,114.130024 108.103225,113.22783 108.103225,112.237206 C108.103225,111.246583 107.200488,110.343846 106.209865,110.343846" id="Fill-14" fill="#3087B6"></path>
        </g>
    </g>
</svg>