<?xml version="1.0" encoding="UTF-8" standalone="no"?>
<svg width="124px" height="134px" viewBox="0 0 124 134" version="1.1" xmlns="http://www.w3.org/2000/svg" xmlns:xlink="http://www.w3.org/1999/xlink">
    <!-- Generator: Sketch 43.2 (39069) - http://www.bohemiancoding.com/sketch -->
    <title>Page 1</title>
    <desc>Created with Sketch.</desc>
    <defs></defs>
    <g id="Page-1" stroke="none" stroke-width="1" fill="none" fill-rule="evenodd">
        <g fill="#3087B6">
            <path d="M115.355703,10.1350281 L73.675245,10.1350281 C72.7248675,4.39347791 67.7270442,0 61.7201847,0 C55.7133253,0 50.715502,4.39347791 49.7651245,10.1350281 L8.08412851,10.1350281 C3.62661044,10.1350281 0,13.7616386 0,18.2191566 L0,125.490731 C0,129.948249 3.62661044,133.574859 8.08412851,133.574859 L115.355703,133.574859 C119.813759,133.574859 123.440369,129.948249 123.440369,125.490731 L123.440369,18.2191566 C123.440369,13.7616386 119.813759,10.1350281 115.355703,10.1350281 L115.355703,10.1350281 Z M34.4536064,39.9363052 L88.9862249,39.9363052 C93.4442811,39.9363052 97.0708916,36.3096948 97.0708916,31.8521767 L97.0708916,24.5090843 L105.742145,24.5090843 L105.742145,118.841855 L17.6971486,118.841855 L17.6971486,24.5090843 L26.3694779,24.5090843 L26.3694779,31.8521767 C26.3694779,36.3096948 29.9960884,39.9363052 34.4536064,39.9363052 L34.4536064,39.9363052 Z M93.817759,31.8521767 C93.817759,34.5165703 91.6506185,36.6837108 88.9862249,36.6837108 L34.4536064,36.6837108 C31.789751,36.6837108 29.6220723,34.5165703 29.6220723,31.8521767 L29.6220723,13.3876225 L49.6666426,13.3876225 C50.3022008,19.4768193 55.4652369,24.240008 61.7201847,24.240008 C67.9751325,24.240008 73.1381687,19.4768193 73.7737269,13.3876225 L93.817759,13.3876225 L93.817759,31.8521767 Z M61.7201847,3.25205622 C66.6093012,3.25205622 70.5873253,7.23061847 70.5873253,12.1197349 C70.5873253,17.0093896 66.6093012,20.9879518 61.7201847,20.9879518 C56.8305301,20.9879518 52.852506,17.0093896 52.852506,12.1197349 C52.852506,7.23061847 56.8305301,3.25205622 61.7201847,3.25205622 L61.7201847,3.25205622 Z M120.187237,125.490731 C120.187237,128.154586 118.020096,130.322265 115.355703,130.322265 L8.08412851,130.322265 C5.42027309,130.322265 3.25259438,128.154586 3.25259438,125.490731 L3.25259438,18.2191566 C3.25259438,15.5547631 5.42027309,13.3876225 8.08412851,13.3876225 L26.3694779,13.3876225 L26.3694779,21.2570281 L14.4445542,21.2570281 L14.4445542,122.09445 L108.995277,122.09445 L108.995277,21.2570281 L97.0708916,21.2570281 L97.0708916,13.3876225 L115.355703,13.3876225 C118.020096,13.3876225 120.187237,15.5547631 120.187237,18.2191566 L120.187237,125.490731 Z" id="Fill-1"></path>
            <path d="M70.1468474,96.0632008 L53.2940602,96.0632008 L53.258004,88.6017149 L70.180751,88.6017149 L70.1468474,96.0632008 Z M87.0195462,85.0951124 C87.3472811,84.7657631 87.5275622,84.3287831 87.5270241,83.8643574 C87.5259478,83.3993936 87.3445904,82.96349 87.0163173,82.635755 L73.2358434,68.8994096 C72.8139317,68.4785743 72.3473534,68.3903173 72.0303815,68.3903173 C71.1591124,68.3903173 70.2367189,69.0484779 70.201739,70.1500763 L70.2022771,85.1230964 L53.2364779,85.1230964 L53.2364779,70.1183253 C53.2025743,69.0484779 52.2807189,68.3903173 51.409988,68.3903173 C51.0930161,68.3903173 50.6269759,68.4785743 50.2050643,68.8994096 L36.4245904,82.635755 C36.0957791,82.96349 35.9144217,83.3993936 35.9133454,83.8643574 C35.9128072,84.3287831 36.0930884,84.7657631 36.4208233,85.0945743 C37.0762932,85.7527349 38.2225582,85.7532731 38.8796426,85.0983414 L49.8235141,74.3089197 L49.8235141,97.8154257 C49.8272811,98.7658032 50.6070643,99.5418193 51.5628233,99.5418193 L55.560759,99.5418193 L55.2771526,100.940478 L55.2771526,110.68696 C55.2771526,111.645948 56.0574739,112.426269 57.017,112.426269 C57.975988,112.426269 58.7557711,111.645948 58.7557711,110.68696 L58.7557711,100.942631 L58.466245,99.5418193 L64.8799478,99.5418193 L64.5979558,100.940478 L64.5979558,110.68696 C64.5979558,111.645948 65.3782771,112.426269 66.3372651,112.426269 C67.2967912,112.426269 68.0771124,111.645948 68.0771124,110.68696 L68.0771124,100.942631 L67.7870482,99.5418193 L71.8791606,99.5418193 C72.8338434,99.5418193 73.6130884,98.7658032 73.6168554,97.8116586 L73.6168554,74.3089197 L84.5564217,85.0945743 C85.2221165,85.7581165 86.3646145,85.7527349 87.0195462,85.0951124 L87.0195462,85.0951124 Z" id="Fill-3"></path>
            <path d="M61.7208843,64.5610386 C58.1556233,64.5610386 55.2555189,61.660396 55.2555189,58.0951349 C55.2555189,54.5298739 58.1556233,51.6297695 61.7208843,51.6297695 C65.2861454,51.6297695 68.186788,54.5298739 68.186788,58.0951349 C68.186788,61.660396 65.2861454,64.5610386 61.7208843,64.5610386 M61.7208843,48.151151 C56.2376474,48.151151 51.7763622,52.611898 51.7763622,58.0951349 C51.7763622,63.5783719 56.2376474,68.039657 61.7208843,68.039657 C67.2041213,68.039657 71.6654064,63.5783719 71.6654064,58.0951349 C71.6654064,52.611898 67.2041213,48.151151 61.7208843,48.151151" id="Fill-5"></path>
        </g>
    </g>
</svg>